<svg class="diagram-root" style="background: #f5f6f6" xmlns="http://www.w3.org/2000/svg" xmlns:xlink="http://www.w3.org/1999/xlink"><style>.diagram-root { font-family: "Helvetica Neue", sans-serif; font-size: 12px; } .t { overflow: visible; } .t-bg { y: 40; fill: #fff;   } .th { fill: #005aa0;   } .tht { fill: #fff; font-size: 14px;  } .tf { fill: #323c46; overflow: visible; } .tf.pk { fill: #005aa0; font-weight: bold; } .tf.fk { font-weight: bold; } .ty { fill: #adb1b5; font-weight: normal; text-anchor: end; } .r { fill: transparent; stroke: #c3c3c3; stroke-width: 1; } .l { stroke: 1; } .i { fill: #c2c7ce; stroke: #c2c7ce; } .i.ix { fill: #afb3b6; stroke: #000; } .fa { fill: transparent; overflow: visible; } .fa .bg.hover { fill: #f7f7f7; } .c { cy: 12; r: 4; stroke: #d2d2dc; fill: #d2d2dc; } .hr { fill: transparent; stroke: #323c46; stroke-opacity: 0.035; stroke-width: 13; } .dc { stroke: #fa5a3c; fill: #fa5a3c; } .x { stroke: white; stroke-width: 1; } .hl .th { fill: #1b9bff; } .hl .tht {  } .fhl .bg { fill: #e7f4ff; } .fhls .bg {  } .r.hl { stroke: #1b9bff; } .dim { opacity: 0.25; }</style><g class="drawing-wrapper" transform="translate(-122, -31) scale(1,1)"><g class="rs"><path d="M 146 544 m -1, 0 a 1,1 0 1,0 2,0 a 1,1 0 1,0 -2,0 M 146 544 m -0.5, 0 a 0.5,0.5 0 1,0 1,0 a 0.5,0.5 0 1,0 -1,0  M146 544 L146 544 134 544 M 146 550 m -1, 0 a 1,1 0 1,0 2,0 a 1,1 0 1,0 -2,0 M 146 550 m -0.5, 0 a 0.5,0.5 0 1,0 1,0 a 0.5,0.5 0 1,0 -1,0  M146 550 L146 550 139 544 146 538 M 146 538 m -1, 0 a 1,1 0 1,0 2,0 a 1,1 0 1,0 -2,0 M 146 538 m -0.5, 0 a 0.5,0.5 0 1,0 1,0 a 0.5,0.5 0 1,0 -1,0  M134 544 C 92.33333333333334 544, 92.33333333333334 419, 134 419 M 146 419 m -1, 0 a 1,1 0 1,0 2,0 a 1,1 0 1,0 -2,0 M 146 419 m -0.5, 0 a 0.5,0.5 0 1,0 1,0 a 0.5,0.5 0 1,0 -1,0  M146 419 L146 419 134 419 M140 425 L140 425 140 413" id="h895272058" class="r"></path><path d="M 294.72 569 m -1, 0 a 1,1 0 1,0 2,0 a 1,1 0 1,0 -2,0 M 294.72 569 m -0.5, 0 a 0.5,0.5 0 1,0 1,0 a 0.5,0.5 0 1,0 -1,0  M294.72 569 L294.72 569 306.72 569 M 294.72 575 m -1, 0 a 1,1 0 1,0 2,0 a 1,1 0 1,0 -2,0 M 294.72 575 m -0.5, 0 a 0.5,0.5 0 1,0 1,0 a 0.5,0.5 0 1,0 -1,0  M294.72 575 L294.72 575 301.72 569 294.72 563 M 294.72 563 m -1, 0 a 1,1 0 1,0 2,0 a 1,1 0 1,0 -2,0 M 294.72 563 m -0.5, 0 a 0.5,0.5 0 1,0 1,0 a 0.5,0.5 0 1,0 -1,0  M306.72 569 Q 331.29 569, 355.86 544 T 405 519 M 417 519 m -1, 0 a 1,1 0 1,0 2,0 a 1,1 0 1,0 -2,0 M 417 519 m -0.5, 0 a 0.5,0.5 0 1,0 1,0 a 0.5,0.5 0 1,0 -1,0  M417 519 L417 519 405 519 M411 525 L411 525 411 513" id="h3880289419" class="r"></path><path d="M 318.05 221 m -1, 0 a 1,1 0 1,0 2,0 a 1,1 0 1,0 -2,0 M 318.05 221 m -0.5, 0 a 0.5,0.5 0 1,0 1,0 a 0.5,0.5 0 1,0 -1,0  M318.05 221 L318.05 221 330.05 221 M 318.05 227 m -1, 0 a 1,1 0 1,0 2,0 a 1,1 0 1,0 -2,0 M 318.05 227 m -0.5, 0 a 0.5,0.5 0 1,0 1,0 a 0.5,0.5 0 1,0 -1,0  M318.05 227 L318.05 227 325.05 221 318.05 215 M 318.05 215 m -1, 0 a 1,1 0 1,0 2,0 a 1,1 0 1,0 -2,0 M 318.05 215 m -0.5, 0 a 0.5,0.5 0 1,0 1,0 a 0.5,0.5 0 1,0 -1,0  M330.05 221 Q 348.54 221, 367.03 182 T 404 143 M 416 143 m -1, 0 a 1,1 0 1,0 2,0 a 1,1 0 1,0 -2,0 M 416 143 m -0.5, 0 a 0.5,0.5 0 1,0 1,0 a 0.5,0.5 0 1,0 -1,0  M416 143 L416 143 404 143 M410 149 L410 149 410 137" id="h4082290353" class="r"></path><path d="M 318.05 246 m -1, 0 a 1,1 0 1,0 2,0 a 1,1 0 1,0 -2,0 M 318.05 246 m -0.5, 0 a 0.5,0.5 0 1,0 1,0 a 0.5,0.5 0 1,0 -1,0  M318.05 246 L318.05 246 330.05 246 M 318.05 252 m -1, 0 a 1,1 0 1,0 2,0 a 1,1 0 1,0 -2,0 M 318.05 252 m -0.5, 0 a 0.5,0.5 0 1,0 1,0 a 0.5,0.5 0 1,0 -1,0  M318.05 252 L318.05 252 325.05 246 318.05 240 M 318.05 240 m -1, 0 a 1,1 0 1,0 2,0 a 1,1 0 1,0 -2,0 M 318.05 240 m -0.5, 0 a 0.5,0.5 0 1,0 1,0 a 0.5,0.5 0 1,0 -1,0  M330.05 246 Q 348.54 246, 367.03 256.5 T 404 267 M 416 267 m -1, 0 a 1,1 0 1,0 2,0 a 1,1 0 1,0 -2,0 M 416 267 m -0.5, 0 a 0.5,0.5 0 1,0 1,0 a 0.5,0.5 0 1,0 -1,0  M416 267 L416 267 404 267 M410 273 L410 273 410 261" id="h18153289" class="r"></path><path d="M 318.05 271 m -1, 0 a 1,1 0 1,0 2,0 a 1,1 0 1,0 -2,0 M 318.05 271 m -0.5, 0 a 0.5,0.5 0 1,0 1,0 a 0.5,0.5 0 1,0 -1,0  M318.05 271 L318.05 271 330.05 271 M 318.05 277 m -1, 0 a 1,1 0 1,0 2,0 a 1,1 0 1,0 -2,0 M 318.05 277 m -0.5, 0 a 0.5,0.5 0 1,0 1,0 a 0.5,0.5 0 1,0 -1,0  M318.05 277 L318.05 277 325.05 271 318.05 265 M 318.05 265 m -1, 0 a 1,1 0 1,0 2,0 a 1,1 0 1,0 -2,0 M 318.05 265 m -0.5, 0 a 0.5,0.5 0 1,0 1,0 a 0.5,0.5 0 1,0 -1,0  M330.05 271 Q 348.54 271, 367.03 332 T 404 393 M 416 393 m -1, 0 a 1,1 0 1,0 2,0 a 1,1 0 1,0 -2,0 M 416 393 m -0.5, 0 a 0.5,0.5 0 1,0 1,0 a 0.5,0.5 0 1,0 -1,0  M416 393 L416 393 404 393 M410 399 L410 399 410 387" id="h946396345" class="r"></path></g><g class="hrs"></g><g class="ts"><svg width="148.72" height="225" x="146" y="362" id="h1537667952" class="t"><rect height="40" width="148.72" class="th"></rect><text x="13" y="25" class="tht">User</text><rect height="185" width="148.72" class="t-bg"></rect><text x="13" y="61" class="tf pk">UserID<tspan x="135.72" class="ty">int</tspan></text><path d="M7,14A2,2 0 0,1 5,12A2,2 0 0,1 7,10A2,2 0 0,1 9,12A2,2 0 0,1 7,14M12.65,10C11.83,7.67 9.61,6 7, 6A6, 6 0 0, 0 1, 12A6, 6 0 0, 0 7, 18C9.61, 18 11.83, 16.33 12.65, 14H17V18H21V14H23V10H12.65Z" class="i pk" transform="translate(103.046171875, 48) scale(0.65)"></path><text x="13" y="86" class="tf">Login<tspan x="135.72" class="ty">string</tspan></text><text x="13" y="111" class="tf">Name<tspan x="135.72" class="ty">string</tspan></text><text x="13" y="136" class="tf">Email<tspan x="135.72" class="ty">string</tspan></text><text x="13" y="161" class="tf">Birthday<tspan x="135.72" class="ty">timestamp</tspan></text><text x="13" y="186" class="tf fk">Friends<tspan x="135.72" class="ty">int</tspan></text><text x="13" y="211" class="tf fk">FriendshipStatus<tspan x="135.72" class="ty">int</tspan></text></svg><svg width="174.05" height="225" x="144" y="64" id="h2744470858" class="t"><rect height="40" width="174.05" class="th"></rect><text x="13" y="25" class="tht">Film</text><rect height="185" width="174.05" class="t-bg"></rect><text x="13" y="61" class="tf pk">FilmID<tspan x="161.05" class="ty">int</tspan></text><path d="M7,14A2,2 0 0,1 5,12A2,2 0 0,1 7,10A2,2 0 0,1 9,12A2,2 0 0,1 7,14M12.65,10C11.83,7.67 9.61,6 7, 6A6, 6 0 0, 0 1, 12A6, 6 0 0, 0 7, 18C9.61, 18 11.83, 16.33 12.65, 14H17V18H21V14H23V10H12.65Z" class="i pk" transform="translate(128.376171875, 48) scale(0.65)"></path><text x="13" y="86" class="tf">Name<tspan x="161.05" class="ty">varchar(200)</tspan></text><text x="13" y="111" class="tf">Description<tspan x="161.05" class="ty">varchar(200)</tspan></text><text x="13" y="136" class="tf">ReleaseDate<tspan x="161.05" class="ty">timestamp</tspan></text><text x="13" y="161" class="tf fk">Likes<tspan x="161.05" class="ty">int</tspan></text><text x="13" y="186" class="tf fk">Genre<tspan x="161.05" class="ty">varchar(40)</tspan></text><text x="13" y="211" class="tf fk">MPA_rating<tspan x="161.05" class="ty">varchar(40)</tspan></text></svg><svg width="118.69" height="125" x="416" y="61" id="h334751877" class="t"><rect height="40" width="118.69" class="th"></rect><text x="13" y="25" class="tht">Likes</text><rect height="85" width="118.69" class="t-bg"></rect><text x="13" y="61" class="tf pk">LikesID<tspan x="105.69" class="ty">int</tspan></text><path d="M7,14A2,2 0 0,1 5,12A2,2 0 0,1 7,10A2,2 0 0,1 9,12A2,2 0 0,1 7,14M12.65,10C11.83,7.67 9.61,6 7, 6A6, 6 0 0, 0 1, 12A6, 6 0 0, 0 7, 18C9.61, 18 11.83, 16.33 12.65, 14H17V18H21V14H23V10H12.65Z" class="i pk" transform="translate(73.016171875, 48) scale(0.65)"></path><text x="13" y="86" class="tf fk">UserID<tspan x="105.69" class="ty">int</tspan></text><text x="13" y="111" class="tf">FilmID<tspan x="105.69" class="ty">int</tspan></text></svg><svg width="156.71" height="100" x="416" y="210" id="h807582512" class="t"><rect height="40" width="156.71" class="th"></rect><text x="13" y="25" class="tht">Genre</text><rect height="60" width="156.71" class="t-bg"></rect><text x="13" y="61" class="tf pk">GenreID<tspan x="143.71" class="ty">int</tspan></text><path d="M7,14A2,2 0 0,1 5,12A2,2 0 0,1 7,10A2,2 0 0,1 9,12A2,2 0 0,1 7,14M12.65,10C11.83,7.67 9.61,6 7, 6A6, 6 0 0, 0 1, 12A6, 6 0 0, 0 7, 18C9.61, 18 11.83, 16.33 12.65, 14H17V18H21V14H23V10H12.65Z" class="i pk" transform="translate(111.03617187500001, 48) scale(0.65)"></path><text x="13" y="86" class="tf">GenreName<tspan x="143.71" class="ty">string</tspan></text><path d="M22,18V22H18V19H15V16H12L9.74,13.74C9.19,13.91 8.61,14 8,14A6,6 0 0,1 2,8A6,6 0 0,1 8,2A6,6 0 0,1 14,8C14,8.61 13.91, 9.19 13.74, 9.74L22, 18M7, 5A2, 2 0 0, 0 5, 7A2, 2 0 0, 0 7, 9A2, 2 0 0, 0 9, 7A2, 2 0 0, 0 7, 5Z" class="i uq" transform="translate(98.36625000000001, 75.5) scale(0.5)"></path></svg><svg width="181.38" height="100" x="416" y="336" id="h800102170" class="t"><rect height="40" width="181.38" class="th"></rect><text x="13" y="25" class="tht">MpaRating</text><rect height="60" width="181.38" class="t-bg"></rect><text x="13" y="61" class="tf pk">MpaRatingID<tspan x="168.38" class="ty">int</tspan></text><path d="M7,14A2,2 0 0,1 5,12A2,2 0 0,1 7,10A2,2 0 0,1 9,12A2,2 0 0,1 7,14M12.65,10C11.83,7.67 9.61,6 7, 6A6, 6 0 0, 0 1, 12A6, 6 0 0, 0 7, 18C9.61, 18 11.83, 16.33 12.65, 14H17V18H21V14H23V10H12.65Z" class="i pk" transform="translate(135.706171875, 48) scale(0.65)"></path><text x="13" y="86" class="tf">MpaRatingName<tspan x="168.38" class="ty">string</tspan></text><path d="M22,18V22H18V19H15V16H12L9.74,13.74C9.19,13.91 8.61,14 8,14A6,6 0 0,1 2,8A6,6 0 0,1 8,2A6,6 0 0,1 14,8C14,8.61 13.91, 9.19 13.74, 9.74L22, 18M7, 5A2, 2 0 0, 0 5, 7A2, 2 0 0, 0 7, 9A2, 2 0 0, 0 9, 7A2, 2 0 0, 0 7, 5Z" class="i uq" transform="translate(123.03625, 75.5) scale(0.5)"></path></svg><svg width="173.38" height="100" x="417" y="462" id="h2577149159" class="t"><rect height="40" width="173.38" class="th"></rect><text x="13" y="25" class="tht">FriendshipStatus</text><rect height="60" width="173.38" class="t-bg"></rect><text x="13" y="61" class="tf pk">StatusID<tspan x="160.38" class="ty">int</tspan></text><path d="M7,14A2,2 0 0,1 5,12A2,2 0 0,1 7,10A2,2 0 0,1 9,12A2,2 0 0,1 7,14M12.65,10C11.83,7.67 9.61,6 7, 6A6, 6 0 0, 0 1, 12A6, 6 0 0, 0 7, 18C9.61, 18 11.83, 16.33 12.65, 14H17V18H21V14H23V10H12.65Z" class="i pk" transform="translate(127.706171875, 48) scale(0.65)"></path><text x="13" y="86" class="tf">StatusName<tspan x="160.38" class="ty">varchar(40)</tspan></text></svg></g></g><text class="qdbd-link" x="10" y="20">www.quickdatabasediagrams.com</text></svg>